<svg xmlns="http://www.w3.org/2000/svg" xmlns:xlink="http://www.w3.org/1999/xlink" width="115" height="115" viewBox="0 0 115 115">
  <defs>
    <clipPath id="clip-path">
      <rect id="Rectangle_413035" data-name="Rectangle 413035" width="110" height="110" transform="translate(0 0)" fill="none"/>
    </clipPath>
  </defs>
  <g id="Group_1207484" data-name="Group 1207484" transform="translate(4574 8377)">
    <rect id="Rectangle_412985" data-name="Rectangle 412985" width="115" height="115" transform="translate(-4574 -8377)" fill="none"/>
    <g id="Group_1207481" data-name="Group 1207481" transform="translate(-4571.365 -8373.67)">
      <rect id="Rectangle_413030" data-name="Rectangle 413030" width="67.353" height="24.814" transform="translate(1.931 17.503)" fill="#ff826e"/>
      <g id="Group_1207480" data-name="Group 1207480" transform="translate(0.365 -0.33)">
        <g id="Group_1207479" data-name="Group 1207479" transform="translate(0)" clip-path="url(#clip-path)">
          <path id="Path_1282922" data-name="Path 1282922" d="M62.559,156.9A21.269,21.269,0,1,1,41.29,178.172,21.269,21.269,0,0,1,62.559,156.9" transform="translate(-32.635 -123.118)" fill="#fcd770"/>
          <path id="Path_1282923" data-name="Path 1282923" d="M71.986,454.194H89.71a3.555,3.555,0,0,1,3.545,3.545v3.545a3.555,3.555,0,0,1-3.545,3.545H61.351a3.555,3.555,0,0,1-3.545-3.545v-3.545a3.555,3.555,0,0,1,3.545-3.545H71.986Z" transform="translate(-45.606 -356.6)" fill="#ffc729"/>
          <path id="Path_1282924" data-name="Path 1282924" d="M75.531,355.1H89.71a3.555,3.555,0,0,1,3.545,3.545v3.545a3.555,3.555,0,0,1-3.545,3.545H61.351a3.555,3.555,0,0,1-3.545-3.545v-3.545a3.555,3.555,0,0,1,3.545-3.545H75.531Z" transform="translate(-45.606 -278.773)" fill="#ffc729"/>
          <path id="Path_1282925" data-name="Path 1282925" d="M71.986,404.645H89.71a3.555,3.555,0,0,1,3.545,3.545v3.545a3.555,3.555,0,0,1-3.545,3.545H61.351a3.555,3.555,0,0,1-3.545-3.545V408.19a3.555,3.555,0,0,1,3.545-3.545H71.986Z" transform="translate(-45.606 -317.686)" fill="#fcd770"/>
          <path id="Path_1282926" data-name="Path 1282926" d="M441.222,210h3.545v17.725h-7.09V206.452A3.555,3.555,0,0,0,441.222,210" transform="translate(-343.944 -162.032)" fill="#ff826e"/>
          <path id="Path_1282927" data-name="Path 1282927" d="M404.645,90.839H415.28a3.571,3.571,0,0,0-3.545,3.545,3.555,3.555,0,0,0,3.545,3.545,3.571,3.571,0,0,0-3.545,3.545,3.556,3.556,0,0,0,3.545,3.545,3.571,3.571,0,0,0-3.545,3.545,3.555,3.555,0,0,0,3.545,3.545,3.571,3.571,0,0,0-3.545,3.545v21.269h-7.09V90.839Z" transform="translate(-318.002 -71.233)" fill="#4fc1e9"/>
          <path id="Path_1282928" data-name="Path 1282928" d="M448.313,90.839a3.555,3.555,0,0,1,3.545,3.545,3.571,3.571,0,0,1-3.545,3.545h-7.09a3.555,3.555,0,0,1-3.545-3.545,3.571,3.571,0,0,1,3.545-3.545Z" transform="translate(-343.945 -71.233)" fill="#f0d0b4"/>
          <path id="Path_1282929" data-name="Path 1282929" d="M448.313,123.871a3.555,3.555,0,0,1,3.545,3.545,3.571,3.571,0,0,1-3.545,3.545h-7.09a3.555,3.555,0,0,1-3.545-3.545,3.571,3.571,0,0,1,3.545-3.545Z" transform="translate(-343.945 -97.175)" fill="#f0d0b4"/>
          <path id="Path_1282930" data-name="Path 1282930" d="M448.313,156.9a3.555,3.555,0,0,1,3.545,3.545,3.571,3.571,0,0,1-3.545,3.545h-7.09a3.555,3.555,0,0,1-3.545-3.545,3.57,3.57,0,0,1,3.545-3.545Z" transform="translate(-343.945 -123.118)" fill="#f0d0b4"/>
          <path id="Path_1282931" data-name="Path 1282931" d="M448.313,189.935a3.555,3.555,0,0,1,3.545,3.545,3.571,3.571,0,0,1-3.545,3.545h-7.09a3.555,3.555,0,0,1-3.545-3.545,3.571,3.571,0,0,1,3.545-3.545Z" transform="translate(-343.945 -149.06)" fill="#f0d0b4"/>
          <path id="Path_1282932" data-name="Path 1282932" d="M339.789,64.9V93.256h-4.927a14.122,14.122,0,0,1-7.3-2.021l-5.495-3.3V63.124l5.495-3.3a14.12,14.12,0,0,1,7.3-2.021h19.107a1.778,1.778,0,0,1,1.772,1.772,5.31,5.31,0,0,1-5.318,5.317Z" transform="translate(-253.145 -45.291)" fill="#f0d0b4"/>
          <path id="Path_1282933" data-name="Path 1282933" d="M418.825,15.348v3.545h-14.18V15.348a7.09,7.09,0,0,1,14.18,0" transform="translate(-318.002 -6.377)" fill="#cf9e76"/>
          <path id="Path_1282934" data-name="Path 1282934" d="M331.571,338.581H292.577a3.555,3.555,0,0,0-3.545,3.545v28.359a3.555,3.555,0,0,0,3.545,3.545h38.994a3.555,3.555,0,0,0,3.545-3.545V342.126a3.555,3.555,0,0,0-3.545-3.545" transform="translate(-227.203 -265.802)" fill="#e6e9ed"/>
          <path id="Path_1282935" data-name="Path 1282935" d="M418.825,305.548l-2.659,7.09-2.038,5.424a2.551,2.551,0,0,1-4.786,0l-2.038-5.424-2.659-7.09h14.18Z" transform="translate(-318.002 -239.859)" fill="#cf9e76"/>
          <path id="Path_1282936" data-name="Path 1282936" d="M108.51,26.587a5.295,5.295,0,0,0-3.935-8.862h-.985a7.019,7.019,0,0,0,.985-3.545,3.534,3.534,0,0,0-1.772-3.052V8.862a8.862,8.862,0,1,0-17.725,0v1.772H81.916a15.945,15.945,0,0,0-8.208,2.274l-5.073,3.043H0V44.311H9.711a22.948,22.948,0,0,0,8.2,30.132H15.952a5.324,5.324,0,0,0-5.317,5.317v3.545a5.282,5.282,0,0,0,1.382,3.545A5.283,5.283,0,0,0,10.635,90.4V93.94a5.282,5.282,0,0,0,1.382,3.545,5.282,5.282,0,0,0-1.382,3.545v3.545a5.324,5.324,0,0,0,5.317,5.317H44.311a5.324,5.324,0,0,0,5.317-5.317V101.03a5.283,5.283,0,0,0-1.382-3.545,5.274,5.274,0,0,0,1.382-3.545V90.4a5.284,5.284,0,0,0-1.382-3.545,5.274,5.274,0,0,0,1.382-3.545V79.76a5.324,5.324,0,0,0-5.317-5.317H42.355a22.948,22.948,0,0,0,8.2-30.132H68.635l5.073,3.043a15.957,15.957,0,0,0,8.208,2.274h3.162V65.9L86.951,70.9H65.581a5.324,5.324,0,0,0-5.318,5.317v28.359a5.324,5.324,0,0,0,5.318,5.317h38.994a5.324,5.324,0,0,0,5.317-5.317V76.215a5.324,5.324,0,0,0-5.317-5.317h-3.646L102.8,65.9V49.629h1.772a5.295,5.295,0,0,0,3.935-8.862,5.236,5.236,0,0,0,0-7.09,5.236,5.236,0,0,0,0-7.09m-2.162,10.635a1.774,1.774,0,0,1-1.772,1.772h-7.09a1.772,1.772,0,1,1,0-3.545h7.09a1.774,1.774,0,0,1,1.772,1.772M98.472,67.353,94.677,77.478a.822.822,0,0,1-1.473,0l-3.8-10.124Zm-6.3-3.545H88.623V21.269h3.871a5.154,5.154,0,0,0,1.056,5.317,5.236,5.236,0,0,0,0,7.09,5.236,5.236,0,0,0,0,7.09,5.274,5.274,0,0,0-1.382,3.545Zm5.317-31.9a1.772,1.772,0,1,1,0-3.545h7.09a1.772,1.772,0,1,1,0,3.545Zm8.862-8.862a1.774,1.774,0,0,1-1.772,1.772h-7.09a1.772,1.772,0,1,1,0-3.545h7.09a1.774,1.774,0,0,1,1.772,1.772M88.623,8.862a5.317,5.317,0,1,1,10.635,0v1.772H88.623ZM21.269,92.168V88.623h3.545v3.545h3.545V88.623H31.9v3.545h3.545V88.623h3.545v3.545h3.545V88.623h1.772A1.773,1.773,0,0,1,46.084,90.4V93.94a1.773,1.773,0,0,1-1.772,1.772H15.952A1.773,1.773,0,0,1,14.18,93.94V90.4a1.773,1.773,0,0,1,1.772-1.772h1.772v3.545Zm24.814,12.407a1.773,1.773,0,0,1-1.772,1.772H15.952a1.773,1.773,0,0,1-1.772-1.772V101.03a1.773,1.773,0,0,1,1.772-1.772h1.772V102.8h3.545V99.257h3.545V102.8h3.545V99.257H31.9V102.8h3.545V99.257h3.545V102.8h3.545V99.257h1.772a1.773,1.773,0,0,1,1.772,1.772Zm0-24.814v3.545a1.773,1.773,0,0,1-1.772,1.772H15.952a1.773,1.773,0,0,1-1.772-1.772V79.76a1.773,1.773,0,0,1,1.772-1.772h1.772v3.545h3.545V77.988h3.545v3.545h3.545V77.988H31.9v3.545h3.545V77.988h3.545v3.545h3.545V77.988h1.772a1.773,1.773,0,0,1,1.772,1.772M30.132,74.443a19.5,19.5,0,1,1,19.5-19.5,19.52,19.52,0,0,1-19.5,19.5m0-42.539a23,23,0,0,0-18.125,8.862H3.545V19.5H67.353V40.767h-19.1A23,23,0,0,0,30.132,31.9m51.784,14.18a12.4,12.4,0,0,1-6.384-1.769L70.9,41.536V18.728l4.633-2.781a12.417,12.417,0,0,1,6.384-1.767H101.03a3.549,3.549,0,0,1-3.545,3.545H85.9l-.526.789a10.146,10.146,0,0,1-8.46,4.529H74.443v3.545h2.473a13.663,13.663,0,0,0,8.162-2.717V46.084Zm22.659,28.359a1.773,1.773,0,0,1,1.772,1.772v28.359a1.773,1.773,0,0,1-1.772,1.772H65.581a1.773,1.773,0,0,1-1.772-1.772V76.215a1.773,1.773,0,0,1,1.772-1.772h22.7l1.606,4.28a4.33,4.33,0,0,0,8.109,0l1.606-4.28ZM99.257,63.808H95.713V49.3a5.257,5.257,0,0,0,1.772.326h1.772Zm5.317-17.725h-7.09a1.772,1.772,0,1,1,0-3.545h7.09a1.772,1.772,0,1,1,0,3.545" transform="translate(-0.207 0.109)"/>
          <path id="Path_1282937" data-name="Path 1282937" d="M360.5,390.549l-14.7,14.7-2.292-2.292L341,405.462l4.8,4.8L363,393.055Z" transform="translate(-268.017 -306.615)"/>
          <rect id="Rectangle_413031" data-name="Rectangle 413031" width="14.18" height="3.545" transform="translate(67.146 78.097)"/>
          <rect id="Rectangle_413032" data-name="Rectangle 413032" width="14.18" height="3.545" transform="translate(67.146 85.186)"/>
          <path id="Path_1282938" data-name="Path 1282938" d="M113.277,186.207v-4.53h-3.545v3.545h-3.545v-3.545h-3.545v3.545H99.1v24.814h3.545v3.545h3.545v-3.545h3.545v3.545h3.545v-4.53a7.051,7.051,0,0,0,1.14-11.422,7.051,7.051,0,0,0-1.14-11.422m-3.545,20.284h-7.09V199.4h7.09a3.545,3.545,0,0,1,0,7.09m0-10.635h-7.09v-7.09h7.09a3.545,3.545,0,0,1,0,7.09" transform="translate(-78.034 -142.574)"/>
          <rect id="Rectangle_413033" data-name="Rectangle 413033" width="10.635" height="3.545" transform="translate(91.961 99.366)"/>
          <rect id="Rectangle_413034" data-name="Rectangle 413034" width="10.635" height="3.545" transform="translate(91.961 92.276)"/>
        </g>
      </g>
    </g>
  </g>
</svg>
