<svg xmlns="http://www.w3.org/2000/svg" xmlns:xlink="http://www.w3.org/1999/xlink" width="115" height="115" viewBox="0 0 115 115">
  <defs>
    <clipPath id="clip-path">
      <rect id="Rectangle_413023" data-name="Rectangle 413023" width="115" height="115" transform="translate(0 0)" fill="none"/>
    </clipPath>
  </defs>
  <g id="Group_1207488" data-name="Group 1207488" transform="translate(-1059.363 -3384)">
    <rect id="Rectangle_412984" data-name="Rectangle 412984" width="115" height="115" transform="translate(1059.363 3384)" fill="none"/>
    <g id="Group_1207475" data-name="Group 1207475" transform="translate(1059.606 3383.539)">
      <g id="Group_1207474" data-name="Group 1207474" transform="translate(-0.243 0.461)" clip-path="url(#clip-path)">
        <path id="Path_1282895" data-name="Path 1282895" d="M252.167,41.29a33.324,33.324,0,0,1-20.941,59.248h9.258a1.857,1.857,0,0,1,1.852,1.851,5.547,5.547,0,0,1-5.555,5.554h5.555a3.714,3.714,0,0,1,3.7,3.7,3.73,3.73,0,0,1-3.7,3.7,3.714,3.714,0,0,1,3.7,3.7,3.73,3.73,0,0,1-3.7,3.7,3.714,3.714,0,0,1,3.7,3.7,3.73,3.73,0,0,1-3.7,3.7,3.714,3.714,0,0,1,3.7,3.7h46.288V41.29Z" transform="translate(-178.932 -32.47)" fill="#e6e9ed"/>
        <rect id="Rectangle_413013" data-name="Rectangle 413013" width="14.812" height="14.812" transform="translate(91.175 56.959)" fill="#ff826e"/>
        <rect id="Rectangle_413014" data-name="Rectangle 413014" width="14.812" height="14.812" transform="translate(91.175 79.177)" fill="#ff826e"/>
        <rect id="Rectangle_413015" data-name="Rectangle 413015" width="18.515" height="25.921" transform="translate(2.303 73.622)" fill="#ff826e"/>
        <rect id="Rectangle_413016" data-name="Rectangle 413016" width="7.406" height="25.921" transform="translate(20.818 73.622)" fill="#fc6e51"/>
        <path id="Path_1282896" data-name="Path 1282896" d="M213.005,368.205v3.7a3.714,3.714,0,0,1-3.7,3.7H201.9a3.714,3.714,0,0,1-3.7-3.7V338.581H209.3a3.73,3.73,0,0,0-3.7,3.7,3.714,3.714,0,0,0,3.7,3.7,3.73,3.73,0,0,0-3.7,3.7,3.714,3.714,0,0,0,3.7,3.7,3.73,3.73,0,0,0-3.7,3.7,3.714,3.714,0,0,0,3.7,3.7,3.73,3.73,0,0,0-3.7,3.7,3.714,3.714,0,0,0,3.7,3.7Z" transform="translate(-153.306 -263.107)" fill="#969faa"/>
        <path id="Path_1282897" data-name="Path 1282897" d="M242.335,371.613a3.714,3.714,0,0,1,3.7,3.7,3.73,3.73,0,0,1-3.7,3.7h-7.406a3.714,3.714,0,0,1-3.7-3.7,3.73,3.73,0,0,1,3.7-3.7Z" transform="translate(-178.932 -288.733)" fill="#f0d0b4"/>
        <path id="Path_1282898" data-name="Path 1282898" d="M242.335,404.645a3.714,3.714,0,0,1,3.7,3.7,3.73,3.73,0,0,1-3.7,3.7h-7.406a3.714,3.714,0,0,1-3.7-3.7,3.73,3.73,0,0,1,3.7-3.7Z" transform="translate(-178.932 -314.359)" fill="#f0d0b4"/>
        <path id="Path_1282899" data-name="Path 1282899" d="M242.335,437.677a3.714,3.714,0,0,1,3.7,3.7,3.73,3.73,0,0,1-3.7,3.7h-7.406a3.714,3.714,0,0,1-3.7-3.7,3.73,3.73,0,0,1,3.7-3.7Z" transform="translate(-178.932 -339.985)" fill="#f0d0b4"/>
        <path id="Path_1282900" data-name="Path 1282900" d="M242.335,338.581a3.714,3.714,0,0,1,3.7,3.7,3.73,3.73,0,0,1-3.7,3.7h-7.406a3.714,3.714,0,0,1-3.7-3.7,3.73,3.73,0,0,1,3.7-3.7h7.406Z" transform="translate(-178.932 -263.107)" fill="#f0d0b4"/>
        <path id="Path_1282901" data-name="Path 1282901" d="M123.871,337.025V311.1l5.74-3.444a14.754,14.754,0,0,1,7.628-2.11H157.2a1.857,1.857,0,0,1,1.851,1.852,5.547,5.547,0,0,1-5.554,5.555h-12.96v29.624h-3.3a14.749,14.749,0,0,1-7.628-2.111Z" transform="translate(-95.647 -237.481)" fill="#f0d0b4"/>
        <path id="Path_1282902" data-name="Path 1282902" d="M156.261,15.664A33.327,33.327,0,1,1,107.6,60.1h9.572a25.908,25.908,0,0,0,36.271,0h.018a25.93,25.93,0,0,0,0-37.03h-.018a25.908,25.908,0,0,0-36.271,0H107.6a33.327,33.327,0,0,1,48.658-7.406" transform="translate(-83.026 -6.844)" fill="#ccd1d9"/>
        <path id="Path_1282903" data-name="Path 1282903" d="M164.739,239.484h21.829a25.908,25.908,0,0,1-36.271,0Z" transform="translate(-116.148 -186.228)" fill="#69d6f4"/>
        <path id="Path_1282904" data-name="Path 1282904" d="M186.568,48.7H150.3a25.908,25.908,0,0,1,36.271,0" transform="translate(-116.148 -32.471)" fill="#69d6f4"/>
        <path id="Path_1282905" data-name="Path 1282905" d="M236.558,74.323a25.93,25.93,0,0,1,0,37.03H214.71a18.515,18.515,0,0,0,0-37.03h21.848Z" transform="translate(-166.119 -58.097)" fill="#b4dd7f"/>
        <path id="Path_1282906" data-name="Path 1282906" d="M36.031,92.837a18.522,18.522,0,0,0,18.515,18.515H19.367A11.118,11.118,0,0,0,8.258,100.243V85.431A11.118,11.118,0,0,0,19.367,74.322H54.546A18.522,18.522,0,0,0,36.031,92.837" transform="translate(-5.955 -58.096)" fill="#b4dd7f"/>
        <path id="Path_1282907" data-name="Path 1282907" d="M8.258,74.323H19.367A11.118,11.118,0,0,1,8.258,85.432Z" transform="translate(-5.955 -58.097)" fill="#a0d468"/>
        <path id="Path_1282908" data-name="Path 1282908" d="M19.367,201.045H8.258V189.936a11.118,11.118,0,0,1,11.109,11.109" transform="translate(-5.955 -147.789)" fill="#a0d468"/>
        <path id="Path_1282909" data-name="Path 1282909" d="M150.644,74.323a18.515,18.515,0,1,1-18.515,18.515,18.515,18.515,0,0,1,18.515-18.515" transform="translate(-102.054 -58.097)" fill="#fcd770"/>
        <path id="Path_1282910" data-name="Path 1282910" d="M187.232,106.5h3.7a1.853,1.853,0,0,1,1.851,1.851h3.7a5.561,5.561,0,0,0-5.554-5.554V99.1h-3.7v3.7a5.554,5.554,0,1,0,0,11.109h3.7a1.851,1.851,0,0,1,0,3.7h-3.7a1.853,1.853,0,0,1-1.851-1.851h-3.7a5.561,5.561,0,0,0,5.554,5.555v3.7h3.7v-3.7a5.555,5.555,0,0,0,0-11.109h-3.7a1.851,1.851,0,0,1,0-3.7" transform="translate(-140.493 -77.317)"/>
        <path id="Path_1282911" data-name="Path 1282911" d="M114.793,7.407H73.355a35.067,35.067,0,0,0-50.18,7.406H0V55.546H23.175a35.172,35.172,0,0,0,14,11.613,16.66,16.66,0,0,0-4.614,1.87l-5.3,3.181H0v29.624H27.26l5.3,3.179a16.668,16.668,0,0,0,8.574,2.375h1.452v1.852a5.561,5.561,0,0,0,5.554,5.554h7.406A5.561,5.561,0,0,0,61.1,109.24v-1.852h1.851a5.547,5.547,0,0,0,5.214-3.7h46.628ZM69.17,51.843H59.813a20.318,20.318,0,0,0,0-33.327H69.17a23.965,23.965,0,0,1,0,33.327m-4.56,3.7a23.934,23.934,0,0,1-25.577,0Zm-16.471-3.7A16.663,16.663,0,1,1,64.8,35.18,16.683,16.683,0,0,1,48.139,51.843m-9.106-37.03a23.934,23.934,0,0,1,25.577,0Zm-2.568,3.7a20.318,20.318,0,0,0,0,33.327h-21.8A12.969,12.969,0,0,0,3.7,40.882V29.477A12.969,12.969,0,0,0,14.664,18.516Zm-25.544,0A9.286,9.286,0,0,1,3.7,25.735V18.516ZM3.7,44.624a9.287,9.287,0,0,1,7.219,7.219H3.7ZM27.85,55.546H33A27.762,27.762,0,1,0,51.842,7.407,27.589,27.589,0,0,0,33,14.813H27.85a31.476,31.476,0,1,1,0,40.733ZM64.8,87.022a1.853,1.853,0,0,1-1.852,1.852H55.545a1.852,1.852,0,0,1,0-3.7h7.406A1.854,1.854,0,0,1,64.8,87.022M53.694,94.428a1.853,1.853,0,0,1,1.851-1.852h7.406a1.852,1.852,0,1,1,0,3.7H55.545a1.853,1.853,0,0,1-1.851-1.852m9.257-12.961H55.545a1.851,1.851,0,1,1,0-3.7h7.406a1.851,1.851,0,1,1,0,3.7M25.921,98.131h-3.7V75.913h3.7ZM3.7,75.913H18.515V98.131H3.7Zm37.43,27.773a12.955,12.955,0,0,1-6.669-1.848l-4.84-2.9V75.109l4.84-2.905a12.97,12.97,0,0,1,6.669-1.846H61.1a3.707,3.707,0,0,1-3.7,3.7H43.446l-.55.824a10.6,10.6,0,0,1-8.837,4.731h-.731v3.7h.731a14.274,14.274,0,0,0,8.526-2.838v23.2ZM57.4,109.24a1.853,1.853,0,0,1-1.851,1.851H48.139a1.853,1.853,0,0,1-1.852-1.851V77.764h4.044a5.384,5.384,0,0,0,1.1,5.554,5.47,5.47,0,0,0,0,7.406,5.47,5.47,0,0,0,0,7.406,5.531,5.531,0,0,0,4.11,9.257H57.4Zm5.554-5.554H55.545a1.851,1.851,0,1,1,0-3.7h7.406a1.851,1.851,0,1,1,0,3.7m48.139-3.7H68.165a5.5,5.5,0,0,0-1.1-1.851,5.469,5.469,0,0,0,0-7.406,5.469,5.469,0,0,0,0-7.406,5.51,5.51,0,0,0-3.331-9.18A7.334,7.334,0,0,0,64.8,70.358a3.664,3.664,0,0,0-.763-2.225,35.191,35.191,0,0,0,22.886-31.1h20.461v-3.7h-3.7V22.219h-3.7V33.328h-3.7V14.813h-3.7V33.328H86.926a35.005,35.005,0,0,0-9.5-22.218H111.09Z" transform="translate(0.451 -0.439)"/>
        <path id="Path_1282912" data-name="Path 1282912" d="M396.387,266.257H414.9V247.742H396.387Zm3.7-14.812H411.2v11.109H400.09Z" transform="translate(-307.063 -192.635)"/>
        <path id="Path_1282913" data-name="Path 1282913" d="M396.387,365.353H414.9V346.838H396.387Zm3.7-14.812H411.2V361.65H400.09Z" transform="translate(-307.063 -269.513)"/>
        <rect id="Rectangle_413017" data-name="Rectangle 413017" width="12.96" height="3.703" transform="translate(72.66 92.137)"/>
        <rect id="Rectangle_413018" data-name="Rectangle 413018" width="12.96" height="3.703" transform="translate(72.66 84.731)"/>
        <rect id="Rectangle_413019" data-name="Rectangle 413019" width="12.96" height="3.703" transform="translate(72.66 77.325)"/>
        <rect id="Rectangle_413020" data-name="Rectangle 413020" width="12.96" height="3.703" transform="translate(72.66 69.919)"/>
        <rect id="Rectangle_413021" data-name="Rectangle 413021" width="16.664" height="3.703" transform="translate(91.175 40.295)"/>
        <rect id="Rectangle_413022" data-name="Rectangle 413022" width="16.664" height="3.703" transform="translate(91.175 47.701)"/>
      </g>
    </g>
  </g>
</svg>
