<svg xmlns="http://www.w3.org/2000/svg" xmlns:xlink="http://www.w3.org/1999/xlink" width="115" height="115" viewBox="0 0 115 115">
  <defs>
    <clipPath id="clip-path">
      <rect id="Rectangle_412992" data-name="Rectangle 412992" width="115" height="115" transform="translate(0 0)" fill="none"/>
    </clipPath>
  </defs>
  <g id="Group_1207467" data-name="Group 1207467" transform="translate(-44.051 -6082)">
    <rect id="Rectangle_412990" data-name="Rectangle 412990" width="115" height="115" transform="translate(44.051 6082)" fill="none"/>
    <g id="Group_1207466" data-name="Group 1207466" transform="translate(44 6081.949)">
      <g id="Group_1207465" data-name="Group 1207465" transform="translate(0.051 0.051)" clip-path="url(#clip-path)">
        <path id="Path_1282849" data-name="Path 1282849" d="M374.379,224A14.379,14.379,0,1,1,360,238.379,14.379,14.379,0,0,1,374.379,224" transform="translate(-279.149 -173.704)" fill="#fcd354"/>
        <path id="Path_1282850" data-name="Path 1282850" d="M38.379,136A14.379,14.379,0,1,1,24,150.379,14.379,14.379,0,0,1,38.379,136" transform="translate(-18.637 -105.474)" fill="#fcd354"/>
        <path id="Path_1282851" data-name="Path 1282851" d="M242.782,22.179a10.021,10.021,0,0,0-10.781,0V13.392a5.392,5.392,0,1,1,10.784,0v8.789Z" transform="translate(-179.906 -6.231)" fill="#337fef"/>
        <path id="Path_1282852" data-name="Path 1282852" d="M232,207.589V144.88a10.019,10.019,0,0,0,10.784,0v62.709Z" transform="translate(-179.906 -112.359)" fill="#337fef"/>
        <path id="Path_1282853" data-name="Path 1282853" d="M110.8,62.538a7.212,7.212,0,0,0,2.067-5.05,6.592,6.592,0,0,0-.27-1.887l22.826,5.967a9.753,9.753,0,0,0-1.887,5.805,7.79,7.79,0,0,0,.072,1.132Z" transform="translate(-85.936 -43.137)" fill="#337fef"/>
        <path id="Path_1282854" data-name="Path 1282854" d="M291.6,109.9a9.753,9.753,0,0,0,1.887-5.806,7.793,7.793,0,0,0-.072-1.132l22.808,5.967a7.2,7.2,0,0,0-1.815,6.935v0Z" transform="translate(-226.116 -79.857)" fill="#337fef"/>
        <path id="Path_1282855" data-name="Path 1282855" d="M136,432.987v-3.595A5.4,5.4,0,0,1,141.392,424h43.136a5.4,5.4,0,0,1,5.392,5.392v3.595Z" transform="translate(-105.474 -328.77)" fill="#48acff"/>
        <path id="Path_1282856" data-name="Path 1282856" d="M347.595,359.189A3.6,3.6,0,0,1,344,355.595V352h35.947v3.595a3.6,3.6,0,0,1-3.595,3.595Z" transform="translate(-266.744 -272.946)" fill="#48acff"/>
        <path id="Path_1282857" data-name="Path 1282857" d="M11.595,271.189A3.6,3.6,0,0,1,8,267.595V264H43.947v3.595a3.6,3.6,0,0,1-3.595,3.595Z" transform="translate(-6.232 -204.717)" fill="#48acff"/>
        <path id="Path_1282858" data-name="Path 1282858" d="M399.189,120A7.189,7.189,0,1,1,392,127.189,7.189,7.189,0,0,1,399.189,120" transform="translate(-303.96 -93.069)" fill="#48acff"/>
        <path id="Path_1282859" data-name="Path 1282859" d="M63.189,32A7.189,7.189,0,1,1,56,39.189,7.189,7.189,0,0,1,63.189,32" transform="translate(-43.448 -24.839)" fill="#48acff"/>
        <path id="Path_1282860" data-name="Path 1282860" d="M221.885,64A9.885,9.885,0,1,1,212,73.885,9.885,9.885,0,0,1,221.885,64" transform="translate(-164.4 -49.65)" fill="#48acff"/>
        <path id="Path_1282861" data-name="Path 1282861" d="M240.493,88A4.493,4.493,0,1,1,236,92.493,4.493,4.493,0,0,1,240.493,88" transform="translate(-183.008 -68.258)" fill="#337fef"/>
        <path id="Path_1282862" data-name="Path 1282862" d="M88,472.987v-3.595A5.4,5.4,0,0,1,93.392,464h64.7a5.4,5.4,0,0,1,5.392,5.392v3.595Z" transform="translate(-68.258 -359.784)" fill="#337fef"/>
        <path id="Path_1282863" data-name="Path 1282863" d="M405.125,245.392h.525a1.538,1.538,0,0,1,1.535,1.536,1.8,1.8,0,1,0,3.595,0,5.12,5.12,0,0,0-3.595-4.871v-.26a1.8,1.8,0,1,0-3.595,0v.261a5.111,5.111,0,0,0-.759,9.458l3.5,1.751a1.535,1.535,0,0,1-.686,2.909h-.525a1.538,1.538,0,0,1-1.535-1.536,1.8,1.8,0,1,0-3.595,0,5.119,5.119,0,0,0,3.595,4.87v.261a1.8,1.8,0,1,0,3.595,0v-.261a5.111,5.111,0,0,0,.759-9.458l-3.5-1.751a1.535,1.535,0,0,1,.686-2.909" transform="translate(-310.158 -186.109)" fill="#37303a"/>
        <path id="Path_1282864" data-name="Path 1282864" d="M113.232,77.285h-.613l-2.584-6.029a16.122,16.122,0,0,0-8.152-21.293q-.579-.258-1.176-.47l-2.9-6.77A8.957,8.957,0,1,0,89.715,27.13L68.9,21.685a11.691,11.691,0,0,0-4.2-6.61V7.189a7.189,7.189,0,1,0-14.379,0v7.885a11.792,11.792,0,0,0-1.453,1.357L28.085,11A8.974,8.974,0,1,0,17.222,22.952l-2.9,6.77a16.122,16.122,0,0,0-9.8,20.588q.212.6.47,1.175L2.41,57.514H1.8a1.8,1.8,0,0,0-1.8,1.8v3.595A5.4,5.4,0,0,0,5.392,68.3H34.149a5.4,5.4,0,0,0,5.392-5.392V59.312a1.8,1.8,0,0,0-1.8-1.8h-.613l-2.584-6.029A16.122,16.122,0,0,0,26.4,30.192q-.578-.258-1.175-.47l-2.9-6.77a8.907,8.907,0,0,0,3-1.556l20.813,5.446a11.691,11.691,0,0,0,4.2,6.611V93.461H35.947a7.2,7.2,0,0,0-7.189,7.189v1.8H25.163a7.2,7.2,0,0,0-7.189,7.189v3.595a1.8,1.8,0,0,0,1.8,1.8H95.258a1.8,1.8,0,0,0,1.8-1.8v-3.595a7.2,7.2,0,0,0-7.189-7.189H86.272v-1.8a7.2,7.2,0,0,0-7.189-7.189H64.7V33.453A11.773,11.773,0,0,0,66.157,32.1l20.788,5.438a8.992,8.992,0,0,0,5.765,5.188l-2.9,6.77a16.122,16.122,0,0,0-9.8,20.587q.212.6.47,1.176L77.9,77.285h-.613a1.8,1.8,0,0,0-1.8,1.8v3.595a5.4,5.4,0,0,0,5.392,5.392h28.757a5.4,5.4,0,0,0,5.392-5.392V79.082a1.8,1.8,0,0,0-1.8-1.8m-4.523,0H105.4A16.3,16.3,0,0,0,107.728,75ZM84.452,71.114l8-18.665a12.221,12.221,0,0,1,5.614,0l8,18.665a12.546,12.546,0,0,1-21.612,0M107.84,64.7a12.662,12.662,0,0,1-.065,1.279l-4.8-11.191A12.555,12.555,0,0,1,107.84,64.7M57.514,32.309a8.028,8.028,0,1,1,.054,0h-.054M53.92,13.147V7.189a3.595,3.595,0,0,1,7.189,0v5.957a12.909,12.909,0,0,0-3.595-.565,12.758,12.758,0,0,0-3.595.565M14.379,14.379a5.392,5.392,0,1,1,5.409,5.39h-.032a5.4,5.4,0,0,1-5.377-5.39M7.189,44.933a12.555,12.555,0,0,1,4.861-9.913l-4.8,11.192a12.661,12.661,0,0,1-.065-1.279M19.771,57.514A12.575,12.575,0,0,1,8.965,51.343l8-18.665a12.221,12.221,0,0,1,5.614,0l8,18.665a12.575,12.575,0,0,1-10.806,6.171M7.3,55.225a16.3,16.3,0,0,0,2.325,2.289H6.32Zm28.646,7.681a1.8,1.8,0,0,1-1.8,1.8H5.392a1.8,1.8,0,0,1-1.8-1.8v-1.8H35.947Zm-2.725-5.392H29.915a16.3,16.3,0,0,0,2.325-2.289Zm-.869-12.581a12.66,12.66,0,0,1-.065,1.279l-4.8-11.192a12.555,12.555,0,0,1,4.861,9.913M19.771,28.757c-.389,0-.769.031-1.151.058l1.151-2.687,1.151,2.687c-.382-.027-.763-.058-1.151-.058m8.973-13.871L46.795,19.6a13.063,13.063,0,0,0-.9,3.461L27.837,18.34a11.159,11.159,0,0,0,.906-3.454m64.718,94.751v1.8H21.568v-1.8a3.6,3.6,0,0,1,3.595-3.595h64.7a3.6,3.6,0,0,1,3.595,3.595M82.677,100.65v1.8H32.352v-1.8a3.6,3.6,0,0,1,3.595-3.595H79.082a3.6,3.6,0,0,1,3.595,3.595M61.109,35.381v58.08H53.92V35.381a11.711,11.711,0,0,0,7.189,0m8.028-9.919,18.054,4.725a10.3,10.3,0,0,0-.906,3.458L68.234,28.924a13.025,13.025,0,0,0,.9-3.461m20.729,8.686a5.392,5.392,0,1,1,5.407,5.391h-.027a5.423,5.423,0,0,1-5.38-5.392M95.258,45.9l1.151,2.687c-.382-.027-.763-.058-1.151-.058s-.769.031-1.151.058ZM82.677,64.7a12.555,12.555,0,0,1,4.861-9.913l-4.8,11.191a12.66,12.66,0,0,1-.065-1.279M82.788,75a16.3,16.3,0,0,0,2.325,2.289H81.808Zm28.646,7.681a1.8,1.8,0,0,1-1.8,1.8H80.88a1.8,1.8,0,0,1-1.8-1.8v-1.8h32.352Z" transform="translate(-0.029 -0.029)" fill="#37303a"/>
        <path id="Path_1282865" data-name="Path 1282865" d="M69.125,157.392h.525a1.538,1.538,0,0,1,1.535,1.536,1.8,1.8,0,1,0,3.595,0,5.12,5.12,0,0,0-3.595-4.871v-.26a1.8,1.8,0,1,0-3.595,0v.261a5.111,5.111,0,0,0-.759,9.458l3.5,1.751a1.535,1.535,0,0,1-.686,2.909h-.525a1.538,1.538,0,0,1-1.535-1.536,1.8,1.8,0,0,0-3.595,0,5.119,5.119,0,0,0,3.595,4.87v.261a1.8,1.8,0,0,0,3.595,0v-.261a5.111,5.111,0,0,0,.759-9.458l-3.5-1.751a1.535,1.535,0,0,1,.686-2.909" transform="translate(-49.646 -117.88)" fill="#37303a"/>
        <path id="Path_1282866" data-name="Path 1282866" d="M234.291,80a6.291,6.291,0,1,0,6.291,6.291A6.291,6.291,0,0,0,234.291,80m0,8.987a2.7,2.7,0,1,1,2.7-2.7,2.7,2.7,0,0,1-2.7,2.7" transform="translate(-176.805 -62.056)" fill="#37303a"/>
      </g>
    </g>
  </g>
</svg>
