<svg xmlns="http://www.w3.org/2000/svg" xmlns:xlink="http://www.w3.org/1999/xlink" width="115" height="115" viewBox="0 0 115 115">
  <defs>
    <clipPath id="clip-path">
      <rect id="Rectangle_413029" data-name="Rectangle 413029" width="83" height="115" transform="translate(0 0)" fill="none"/>
    </clipPath>
  </defs>
  <g id="Group_1207485" data-name="Group 1207485" transform="translate(4870 8387)">
    <rect id="Rectangle_412986" data-name="Rectangle 412986" width="115" height="115" transform="translate(-4870 -8387)" fill="none"/>
    <g id="Group_1207478" data-name="Group 1207478" transform="translate(-4854.103 -8387.462)">
      <rect id="Rectangle_413024" data-name="Rectangle 413024" width="77.29" height="103.657" transform="translate(3.309 7.86)" fill="#bcbcbc"/>
      <rect id="Rectangle_413025" data-name="Rectangle 413025" width="7.338" height="103.657" transform="translate(3.309 7.86)" fill="#999"/>
      <rect id="Rectangle_413026" data-name="Rectangle 413026" width="51.438" height="32.271" transform="translate(16.236 23.751)" fill="#fff"/>
      <rect id="Rectangle_413027" data-name="Rectangle 413027" width="33.264" height="31.715" transform="translate(25.322 68.226)" fill="#ffe499"/>
      <rect id="Rectangle_413028" data-name="Rectangle 413028" width="7.338" height="31.715" transform="translate(25.322 68.226)" fill="#efd08b"/>
      <g id="Group_1207477" data-name="Group 1207477" transform="translate(0.103 0.462)">
        <g id="Group_1207476" data-name="Group 1207476" transform="translate(0 0)" clip-path="url(#clip-path)">
          <path id="Path_1282914" data-name="Path 1282914" d="M110.234,267.1H53v5.867h9.05v28.761a2.934,2.934,0,0,0,2.935,2.934H98.249a2.934,2.934,0,0,0,2.935-2.934V272.964h9.05Zm-14.92,31.695H67.92V272.964H95.314Z" transform="translate(-39.765 -202.247)" fill="#333"/>
          <path id="Path_1282915" data-name="Path 1282915" d="M155.465,313.4c-2.057-.841-2.211-1.22-2.211-1.7,0-.643.555-1.026,1.484-1.026,1.873.086,2.128.568,3.239,1.128l1.167-3.045a6.7,6.7,0,0,0-2.985-1.191v-2.2H153v2.39a4.41,4.41,0,0,0-3.361,4.207c0,2.608,2.117,3.781,4.185,4.582,1.959.785,1.959,1.453,1.959,1.812,0,.783-.7,1.289-1.773,1.289a6.043,6.043,0,0,1-3.631-1.4l-1.121,3.092a6.311,6.311,0,0,0,3.463,1.452v2.382h3.158V322.6a4.486,4.486,0,0,0,3.526-4.409C159.4,315.318,157.157,314.078,155.465,313.4Z" transform="translate(-112.48 -231.149)" fill="#333"/>
          <path id="Path_1282916" data-name="Path 1282916" d="M132.958,30.144c0,14.282-17.736,27.077-17.736,27.077s-17.736-12.2-17.736-27.077a17.741,17.741,0,1,1,35.473,0" transform="translate(-73.37 -9.539)" fill="#ef438a"/>
          <path id="Path_1282917" data-name="Path 1282917" d="M115.222,92.7S100.639,82.664,97.92,69.7a18.613,18.613,0,0,0-.434,3.985c0,14.877,17.736,27.077,17.736,27.077s17.736-12.795,17.736-27.077a18.606,18.606,0,0,0-.449-4.053C129.752,82.213,115.222,92.7,115.222,92.7Z" transform="translate(-73.37 -53.08)" fill="#dd3c76"/>
          <path id="Path_1282918" data-name="Path 1282918" d="M80.225,4.944H54.861a20.31,20.31,0,0,0-26.561,0H2.935A2.934,2.934,0,0,0,0,7.877V111.534a2.934,2.934,0,0,0,2.935,2.934h77.29a2.934,2.934,0,0,0,2.935-2.934V7.877A2.934,2.934,0,0,0,80.225,4.944ZM64.364,26.7V53.1H18.8V26.7h2.826c3.371,13.465,17.61,23.406,18.294,23.876A2.936,2.936,0,0,0,43.3,50.54c.679-.49,14.755-10.783,18.2-23.838h2.869Zm-7.983-5.618c0,10.155-10.63,19.912-14.836,23.374-4.209-3.348-14.766-12.8-14.766-23.374A15.03,15.03,0,0,1,41.58,5.867a15.031,15.031,0,0,1,14.8,15.217M77.29,108.6H5.87V10.811H23.538a21.268,21.268,0,0,0-2.623,10.024H15.861a2.934,2.934,0,0,0-2.935,2.934V56.039a2.934,2.934,0,0,0,2.935,2.934H67.3a2.934,2.934,0,0,0,2.935-2.934V23.768A2.934,2.934,0,0,0,67.3,20.835H62.245a21.268,21.268,0,0,0-2.623-10.024H77.29Z" transform="translate(0.272 -0.479)" fill="#333"/>
          <path id="Path_1282919" data-name="Path 1282919" d="M148.326,55.015a7.136,7.136,0,1,1-7.018,7.135,7.077,7.077,0,0,1,7.018-7.135" transform="translate(-106.474 -42.038)" fill="#fff"/>
          <path id="Path_1282920" data-name="Path 1282920" d="M152.973,65.584a7.077,7.077,0,0,1-7.018-7.135,7.239,7.239,0,0,1,.337-2.185,7.152,7.152,0,0,0,2.034,13.965,7.033,7.033,0,0,0,6.681-4.95A6.9,6.9,0,0,1,152.973,65.584Z" transform="translate(-106.474 -42.981)" fill="#eaeaea"/>
          <path id="Path_1282921" data-name="Path 1282921" d="M139.262,63.159a10.07,10.07,0,1,1,9.953-10.069,10.023,10.023,0,0,1-9.953,10.069m0-14.271a4.2,4.2,0,1,0,4.082,4.2,4.148,4.148,0,0,0-4.082-4.2" transform="translate(-97.41 -32.977)" fill="#333"/>
        </g>
      </g>
    </g>
  </g>
</svg>
