<svg xmlns="http://www.w3.org/2000/svg" xmlns:xlink="http://www.w3.org/1999/xlink" width="115" height="115" viewBox="0 0 115 115">
  <defs>
    <clipPath id="clip-path">
      <rect id="Rectangle_413012" data-name="Rectangle 413012" width="113" height="114" transform="translate(0 0)" fill="none"/>
    </clipPath>
  </defs>
  <g id="Group_1207487" data-name="Group 1207487" transform="translate(-763.363 -3374)">
    <rect id="Rectangle_412983" data-name="Rectangle 412983" width="115" height="115" transform="translate(763.363 3374)" fill="none"/>
    <g id="Group_1207473" data-name="Group 1207473" transform="translate(764.146 3374.539)">
      <g id="Group_1207472" data-name="Group 1207472" transform="translate(0.216 0.461)" clip-path="url(#clip-path)">
        <path id="Path_1282879" data-name="Path 1282879" d="M409.409,401.849l-16.034-16.034a5.344,5.344,0,0,0-7.558,7.558l16.034,16.034a5.344,5.344,0,1,0,7.558-7.558" transform="translate(-299.188 -299.283)" fill="#55697a"/>
        <path id="Path_1282880" data-name="Path 1282880" d="M405.412,406.649l-16.034-16.034a5.343,5.343,0,0,1-1.335-5.331,5.344,5.344,0,0,0-2.23,8.894l16.034,16.034a5.332,5.332,0,0,0,8.884-2.229,5.4,5.4,0,0,1-5.32-1.334" transform="translate(-299.185 -300.087)" fill="#40566a"/>
        <path id="Path_1282881" data-name="Path 1282881" d="M50.271,7.514A42.757,42.757,0,1,1,7.514,50.271,42.757,42.757,0,0,1,50.271,7.514" transform="translate(-6.182 -6.278)" fill="#fddd88"/>
        <path id="Path_1282882" data-name="Path 1282882" d="M55.616,108.651a42.757,42.757,0,0,1-26.3-76.467,42.759,42.759,0,1,0,47.258,70.984,42.558,42.558,0,0,1-20.957,5.483" transform="translate(-6.183 -25.465)" fill="#fcd56a"/>
        <path id="Path_1282883" data-name="Path 1282883" d="M75.207,39.577a35.63,35.63,0,1,1-35.63,35.63,35.63,35.63,0,0,1,35.63-35.63" transform="translate(-31.119 -31.215)" fill="#eaecee"/>
        <path id="Path_1282884" data-name="Path 1282884" d="M93.91,63.624A30.286,30.286,0,1,1,63.624,93.91,30.286,30.286,0,0,1,93.91,63.624" transform="translate(-49.821 -49.918)" fill="#f4f6f7"/>
        <path id="Path_1282885" data-name="Path 1282885" d="M163.823,94.8a2.672,2.672,0,0,0,2.672-2.672V89.455a10.7,10.7,0,0,0-10.689-10.689V74.312a2.672,2.672,0,0,0-5.344,0v4.53a12.025,12.025,0,0,0,1.336,23.975h2.672a6.681,6.681,0,0,1,0,13.362h-4.008a5.35,5.35,0,0,1-5.345-5.345,2.672,2.672,0,1,0-5.344,0,10.7,10.7,0,0,0,10.689,10.689v4.454a2.672,2.672,0,1,0,5.344,0v-4.53a12.025,12.025,0,0,0-1.336-23.975H151.8a6.681,6.681,0,1,1,0-13.362h4.008a5.35,5.35,0,0,1,5.345,5.345v2.672a2.672,2.672,0,0,0,2.672,2.672" transform="translate(-109.046 -56.152)" fill="#fd8e61"/>
        <path id="Path_1282886" data-name="Path 1282886" d="M111.74,101.82,95.706,85.786a7.026,7.026,0,0,0-8.868-.864l-10.07-10.07A44.452,44.452,0,1,0,74.39,77.2l10.2,10.2a7.026,7.026,0,0,0,1.2,8.313L101.82,111.74a7.014,7.014,0,0,0,11.528-7.421,7.058,7.058,0,0,0-1.607-2.5M3.34,44.427A41.086,41.086,0,1,1,44.427,85.513,41.133,41.133,0,0,1,3.34,44.427m105.311,65.517a3.717,3.717,0,0,1-4.47-.565L88.148,93.344a3.674,3.674,0,0,1,5.2-5.2l16.034,16.034a3.718,3.718,0,0,1-.727,5.762" transform="translate(-0.338 -0.435)"/>
        <path id="Path_1282887" data-name="Path 1282887" d="M90.2,38.422a1.67,1.67,0,1,0-1.868,2.769,33.8,33.8,0,1,1-7.085-3.651,1.67,1.67,0,0,0,1.169-3.129A37.337,37.337,0,1,0,90.2,38.422" transform="translate(-25.273 -25.371)"/>
        <path id="Path_1282888" data-name="Path 1282888" d="M157.979,90.626a4.347,4.347,0,0,0,4.342-4.342V83.611a12.378,12.378,0,0,0-10.689-12.247v-2.9a4.342,4.342,0,1,0-8.685,0v3.117a13.7,13.7,0,0,0,3.006,27.057h2.672a5.011,5.011,0,1,1,0,10.021h-4.008a3.679,3.679,0,0,1-3.674-3.674,4.342,4.342,0,1,0-8.685,0,12.378,12.378,0,0,0,10.689,12.247v2.9a4.342,4.342,0,1,0,8.685,0v-3.117a13.7,13.7,0,0,0-3.006-27.057h-2.672a5.011,5.011,0,0,1,0-10.021h4.008a3.678,3.678,0,0,1,3.674,3.674v2.672a4.347,4.347,0,0,0,4.342,4.342M149.962,76.6h-4.008a8.351,8.351,0,0,0,0,16.7h2.672a10.354,10.354,0,0,1,1.152,20.644,1.67,1.67,0,0,0-1.486,1.66v4.53a1,1,0,1,1-2,0v-4.454a1.67,1.67,0,0,0-1.67-1.67,9.029,9.029,0,0,1-9.019-9.019,1,1,0,0,1,2,0A7.023,7.023,0,0,0,144.617,112h4.008a8.351,8.351,0,0,0,0-16.7h-2.672A10.354,10.354,0,0,1,144.8,74.658,1.67,1.67,0,0,0,146.288,73v-4.53a1,1,0,1,1,2,0v4.454a1.67,1.67,0,0,0,1.67,1.67,9.029,9.029,0,0,1,9.019,9.019v2.672a1,1,0,1,1-2,0V83.611a7.023,7.023,0,0,0-7.015-7.015" transform="translate(-103.201 -50.308)"/>
        <path id="Path_1282889" data-name="Path 1282889" d="M473.233,136.739a21.351,21.351,0,0,1-6.294,15.2A1.67,1.67,0,1,0,469.3,154.3a24.83,24.83,0,0,0,0-35.115,1.67,1.67,0,0,0-2.362,2.362,21.35,21.35,0,0,1,6.294,15.2" transform="translate(-363.117 -92.747)"/>
        <path id="Path_1282890" data-name="Path 1282890" d="M448.475,154.372a14.268,14.268,0,0,1-4.207,10.156,1.67,1.67,0,1,0,2.362,2.362,17.7,17.7,0,0,0,0-25.037,1.67,1.67,0,0,0-2.362,2.362,14.27,14.27,0,0,1,4.207,10.157" transform="translate(-345.485 -110.379)"/>
        <path id="Path_1282891" data-name="Path 1282891" d="M423.715,172a7.189,7.189,0,0,1-2.12,5.117,1.67,1.67,0,1,0,2.362,2.362,10.578,10.578,0,0,0,0-14.959,1.67,1.67,0,0,0-2.362,2.362,7.19,7.19,0,0,1,2.12,5.118" transform="translate(-327.851 -128.012)"/>
        <path id="Path_1282892" data-name="Path 1282892" d="M151.934,466.939a21.49,21.49,0,0,1-30.391,0,1.67,1.67,0,0,0-2.362,2.362,24.83,24.83,0,0,0,35.115,0,1.67,1.67,0,0,0-2.362-2.362" transform="translate(-92.65 -363.214)"/>
        <path id="Path_1282893" data-name="Path 1282893" d="M141.853,444.268a1.67,1.67,0,0,0,0,2.362,17.7,17.7,0,0,0,25.037,0,1.67,1.67,0,0,0-2.362-2.362,14.364,14.364,0,0,1-20.313,0,1.671,1.671,0,0,0-2.362,0" transform="translate(-110.283 -345.581)"/>
        <path id="Path_1282894" data-name="Path 1282894" d="M179.484,423.957a1.67,1.67,0,0,0-2.362-2.362,7.237,7.237,0,0,1-10.235,0,1.67,1.67,0,0,0-2.362,2.362,10.577,10.577,0,0,0,14.959,0" transform="translate(-127.916 -327.948)"/>
      </g>
    </g>
  </g>
</svg>
