<svg xmlns="http://www.w3.org/2000/svg" xmlns:xlink="http://www.w3.org/1999/xlink" width="115" height="115" viewBox="0 0 115 115">
  <defs>
    <clipPath id="clip-path">
      <rect id="Rectangle_413037" data-name="Rectangle 413037" width="115" height="105" transform="translate(0 0.417)" fill="none"/>
    </clipPath>
  </defs>
  <g id="Group_1207486" data-name="Group 1207486" transform="translate(4527 7772)">
    <rect id="Rectangle_412987" data-name="Rectangle 412987" width="115" height="115" transform="translate(-4527 -7772)" fill="none"/>
    <g id="Group_1207483" data-name="Group 1207483" transform="translate(-4527.374 -7767.727)">
      <g id="Group_1207482" data-name="Group 1207482" transform="translate(0.374 0.311)" clip-path="url(#clip-path)">
        <path id="Path_1282939" data-name="Path 1282939" d="M109.1,65.495v43.7a16.639,16.639,0,0,0-21.506,20H16.957A6.956,6.956,0,0,1,10,122.239V65.495a6.956,6.956,0,0,1,6.957-6.955H30.551V98.128H40.77v10.033H83.035V58.54h19.109a6.955,6.955,0,0,1,6.955,6.955" transform="translate(-8.075 -45.67)" fill="#c3d3dd"/>
        <path id="Path_1282940" data-name="Path 1282940" d="M87.915,156.776h39.427a16.672,16.672,0,0,1,9.336-8.661V108.54H121.825v38.411H79.56V136.918H69.34V108.54H60v48.236H87.915Z" transform="translate(-46.865 -84.46)" fill="#f9f5f3"/>
        <path id="Path_1282941" data-name="Path 1282941" d="M204.685,373.676H187.2l-2.69,19.8H207.6Z" transform="translate(-143.458 -290.151)" fill="#868eaf"/>
        <rect id="Rectangle_413036" data-name="Rectangle 413036" width="42.265" height="50.471" transform="translate(22.475 1.987)" fill="#f9f5f3"/>
        <path id="Path_1282942" data-name="Path 1282942" d="M189.505,58.537v49.622H147.24V98.126h32.046V58.537Z" transform="translate(-114.545 -45.667)" fill="#a0c8ff"/>
        <path id="Path_1282943" data-name="Path 1282943" d="M370.234,280.436A16.636,16.636,0,1,1,353.6,297.072a16.636,16.636,0,0,1,16.636-16.636" transform="translate(-274.637 -217.815)" fill="#ffc135"/>
        <path id="Path_1282944" data-name="Path 1282944" d="M131.286,313.873a2.24,2.24,0,1,0,2.928,1.213,2.261,2.261,0,0,0-2.928-1.213" transform="translate(-101.098 -243.627)"/>
        <path id="Path_1282945" data-name="Path 1282945" d="M209.247,58.8h6.722a2.242,2.242,0,1,0,0-4.484h-6.722a2.242,2.242,0,1,0,0,4.484" transform="translate(-160.911 -42.395)"/>
        <path id="Path_1282946" data-name="Path 1282946" d="M209.247,115.442h6.722a2.242,2.242,0,0,0,0-4.484h-6.722a2.242,2.242,0,1,0,0,4.484" transform="translate(-160.911 -86.335)"/>
        <path id="Path_1282947" data-name="Path 1282947" d="M138.482,176.08H161.07a2.242,2.242,0,1,0,0-4.484H138.482a2.242,2.242,0,1,0,0,4.484Z" transform="translate(-106.012 -133.378)"/>
        <path id="Path_1282948" data-name="Path 1282948" d="M103.583,62.267V20.08a9.207,9.207,0,0,0-9.2-9.2H67.3V2.242A2.242,2.242,0,0,0,65.057,0H22.793A2.242,2.242,0,0,0,20.55,2.242v8.641H9.2A9.208,9.208,0,0,0,0,20.08V76.824a9.21,9.21,0,0,0,9.2,9.2H41.491L39.41,101.341H32.232a2.242,2.242,0,1,0,0,4.484H73.6a2.242,2.242,0,1,0,0-4.484H66.4L64.141,86.023H78.195a18.878,18.878,0,1,0,25.388-23.756Zm-26.064-46.9H94.386A4.718,4.718,0,0,1,99.1,20.08V60.9a19.044,19.044,0,0,0-6.726.068V24.335a2.242,2.242,0,0,0-2.242-2.242H77.519ZM65.058,54.955A2.267,2.267,0,0,0,67.3,52.713V15.366h5.735V60.5H35.254V54.955ZM62.815,4.484V50.471H25.035V4.484Zm-18.88,96.857,2.081-15.318H59.609l2.254,15.318ZM41.368,70.329a2.242,2.242,0,1,0,0,4.484H77.629a18.943,18.943,0,0,0-.488,6.726H9.2a4.72,4.72,0,0,1-4.715-4.715V20.08A4.719,4.719,0,0,1,9.2,15.367H20.55v6.726h-7.1a2.242,2.242,0,0,0-2.242,2.242V72.571a2.242,2.242,0,0,0,2.242,2.242h8.189a2.242,2.242,0,0,0,0-4.484H15.694V26.577h4.856V52.713a2.242,2.242,0,0,0,2.242,2.242H30.77v7.791a2.242,2.242,0,0,0,2.242,2.242H75.277a2.242,2.242,0,0,0,2.242-2.242V26.577h10.37V62.422a19.114,19.114,0,0,0-8.468,7.906H41.368ZM95.915,93.906a14.392,14.392,0,1,1,14.394-14.394A14.546,14.546,0,0,1,95.915,93.906Z" transform="translate(-0.317 -0.255)"/>
        <path id="Path_1282949" data-name="Path 1282949" d="M139.435,60.487a7.05,7.05,0,0,0,3.362,1.291v.742a1.569,1.569,0,1,0,3.139,0v-.9a5.916,5.916,0,0,0,4.189-4.677,5.214,5.214,0,0,0-3.543-5.9c-.213-.075-.429-.153-.645-.233V46.66a2.546,2.546,0,0,1,.548.332l-.019-.017.023-.025,0,.042s1.319,1.1,2.334-.037a1.648,1.648,0,0,0-.224-2.287,5.856,5.856,0,0,0-2.658-1.3v-.657a1.569,1.569,0,1,0-3.139,0v.767c-.052.014-.1.024-.154.04a4.92,4.92,0,0,0-3.376,3.856,4.387,4.387,0,0,0,1.456,4.32,10.445,10.445,0,0,0,2.074,1.224v5.694a4.389,4.389,0,0,1-1.643-.753,1.57,1.57,0,0,0-1.719,2.627Zm7.594-4.059a2.79,2.79,0,0,1-1.093,1.77V54.185a2.035,2.035,0,0,1,1.093,2.244m-4.369-7.2a1.335,1.335,0,0,1-.308-1.269,2.039,2.039,0,0,1,.445-.932v2.3c-.047-.034-.093-.068-.137-.1" transform="translate(-107.939 -32.173)"/>
        <path id="Path_1282950" data-name="Path 1282950" d="M403.782,304.929a6.928,6.928,0,0,0-7.075,6.931,1.906,1.906,0,0,0,3.811,0,3.121,3.121,0,0,1,6.238-.169,3.124,3.124,0,0,1-3.117,3.29,1.906,1.906,0,0,0-1.906,1.906v3.868a1.906,1.906,0,0,0,3.811,0v-2.232a6.96,6.96,0,0,0,3.122-1.891,6.878,6.878,0,0,0,1.9-5.139,6.953,6.953,0,0,0-6.781-6.565" transform="translate(-308.08 -236.816)"/>
        <path id="Path_1282951" data-name="Path 1282951" d="M420.982,388.965a1.905,1.905,0,1,0,1.958,1.811A1.923,1.923,0,0,0,420.982,388.965Z" transform="translate(-325.476 -302.011)"/>
      </g>
    </g>
  </g>
</svg>
