<svg xmlns="http://www.w3.org/2000/svg" xmlns:xlink="http://www.w3.org/1999/xlink" width="115" height="115" viewBox="0 0 115 115">
  <defs>
    <clipPath id="clip-path">
      <rect id="Rectangle_413273" data-name="Rectangle 413273" width="115" height="115" fill="none"/>
    </clipPath>
  </defs>
  <g id="Group_1207912" data-name="Group 1207912" transform="translate(-770.051 -2191)">
    <rect id="Rectangle_413218" data-name="Rectangle 413218" width="115" height="115" transform="translate(770.051 2191)" fill="none"/>
    <g id="Group_1207911" data-name="Group 1207911" transform="translate(770.051 2191)">
      <g id="Group_1207910" data-name="Group 1207910" clip-path="url(#clip-path)">
        <path id="Path_1284529" data-name="Path 1284529" d="M59.719,11.694v66.5a3.7,3.7,0,0,1-3.694,3.694H11.694A3.7,3.7,0,0,1,8,78.19v-66.5A3.7,3.7,0,0,1,11.694,8H56.025a3.7,3.7,0,0,1,3.694,3.694" transform="translate(-6.153 -6.153)" fill="#aab2bd"/>
        <rect id="Rectangle_413263" data-name="Rectangle 413263" width="8" height="8" transform="translate(24 46)" fill="#ffeaa7"/>
        <rect id="Rectangle_413264" data-name="Rectangle 413264" width="7" height="8" transform="translate(9 46)" fill="#ffeaa7"/>
        <rect id="Rectangle_413265" data-name="Rectangle 413265" width="7" height="8" transform="translate(9 61)" fill="#ffeaa7"/>
        <rect id="Rectangle_413266" data-name="Rectangle 413266" width="8" height="8" transform="translate(24 61)" fill="#ffeaa7"/>
        <rect id="Rectangle_413267" data-name="Rectangle 413267" width="8" height="8" transform="translate(38 61)" fill="#ffeaa7"/>
        <rect id="Rectangle_413268" data-name="Rectangle 413268" width="8" height="8" transform="translate(38 46)" fill="#ffeaa7"/>
        <rect id="Rectangle_413269" data-name="Rectangle 413269" width="8" height="6" transform="translate(38 32)" fill="#ffeaa7"/>
        <rect id="Rectangle_413270" data-name="Rectangle 413270" width="8" height="6" transform="translate(24 32)" fill="#ffeaa7"/>
        <rect id="Rectangle_413271" data-name="Rectangle 413271" width="7" height="6" transform="translate(9 32)" fill="#ffeaa7"/>
        <rect id="Rectangle_413272" data-name="Rectangle 413272" width="37" height="15" transform="translate(9 9)" fill="#69d6f4"/>
        <path id="Path_1284530" data-name="Path 1284530" d="M300.942,100.356a18.45,18.45,0,0,0-33.23-11.065A18.61,18.61,0,0,0,264,85.579V8h51.719v96.05H300.942l-.351-.055a19.438,19.438,0,0,0,.351-3.639" transform="translate(-203.045 -6.153)" fill="#48cfad"/>
        <path id="Path_1284531" data-name="Path 1284531" d="M332.942,154.471A18.471,18.471,0,1,1,314.471,136a18.471,18.471,0,0,1,18.471,18.471" transform="translate(-227.657 -104.599)" fill="#fcd770"/>
        <path id="Path_1284532" data-name="Path 1284532" d="M294.837,328a18.478,18.478,0,0,1,18.471,18.471,19.436,19.436,0,0,1-.351,3.639,18.456,18.456,0,0,1-32.879,7.425,18.489,18.489,0,0,0,0-22.129A18.386,18.386,0,0,1,294.837,328" transform="translate(-215.411 -252.268)" fill="#fcd770"/>
        <path id="Path_1284533" data-name="Path 1284533" d="M181.632,335.406a18.46,18.46,0,1,1-29.554,22.129,18.489,18.489,0,0,0,0-22.129,18.433,18.433,0,0,1,25.842-3.712,18.61,18.61,0,0,1,3.712,3.712" transform="translate(-116.965 -252.268)" fill="#fcd770"/>
        <path id="Path_1284534" data-name="Path 1284534" d="M41.266,335.406A18.474,18.474,0,1,1,26.471,328a18.388,18.388,0,0,1,14.795,7.406" transform="translate(-6.153 -252.268)" fill="#fcd770"/>
        <path id="Path_1284535" data-name="Path 1284535" d="M160,267.083h11.083V256H160Zm3.694-7.388h3.694v3.694h-3.694Z" transform="translate(-123.058 -196.892)"/>
        <path id="Path_1284536" data-name="Path 1284536" d="M160,203.083h11.083V192H160Zm3.694-7.388h3.694v3.694h-3.694Z" transform="translate(-123.058 -147.669)"/>
        <path id="Path_1284537" data-name="Path 1284537" d="M96,267.083h11.083V256H96Zm3.694-7.388h3.694v3.694H99.694Z" transform="translate(-73.835 -196.892)"/>
        <path id="Path_1284538" data-name="Path 1284538" d="M96,203.083h11.083V192H96Zm3.694-7.388h3.694v3.694H99.694Z" transform="translate(-73.835 -147.669)"/>
        <path id="Path_1284539" data-name="Path 1284539" d="M32,267.083H43.083V256H32Zm3.694-7.388h3.694v3.694H35.694Z" transform="translate(-24.612 -196.892)"/>
        <path id="Path_1284540" data-name="Path 1284540" d="M32,203.083H43.083V192H32Zm3.694-7.388h3.694v3.694H35.694Z" transform="translate(-24.612 -147.669)"/>
        <path id="Path_1284541" data-name="Path 1284541" d="M96,139.083h11.083V128H96Zm3.694-7.388h3.694v3.694H99.694Z" transform="translate(-73.835 -98.446)"/>
        <path id="Path_1284542" data-name="Path 1284542" d="M160,139.083h11.083V128H160Zm3.694-7.388h3.694v3.694h-3.694Z" transform="translate(-123.058 -98.446)"/>
        <path id="Path_1284543" data-name="Path 1284543" d="M32,139.083H43.083V128H32Zm3.694-7.388h3.694v3.694H35.694Z" transform="translate(-24.612 -98.446)"/>
        <path id="Path_1284544" data-name="Path 1284544" d="M32,50.471H72.636V32H32Zm3.694-14.777H68.942V46.777H35.694Z" transform="translate(-24.612 -24.612)"/>
        <path id="Path_1284545" data-name="Path 1284545" d="M114.521,0H59.108V76.127A20.185,20.185,0,0,0,54.8,74.514a5.463,5.463,0,0,0,.611-2.477V5.541A5.549,5.549,0,0,0,49.872,0H5.541A5.549,5.549,0,0,0,0,5.541v66.5a5.549,5.549,0,0,0,5.541,5.541H8.672a20.3,20.3,0,1,0,26.419,30.53,20.234,20.234,0,0,0,29.554,0,20.091,20.091,0,0,0,14.781,6.412A20.344,20.344,0,0,0,98.958,99.744h15.563ZM5.541,73.884a1.851,1.851,0,0,1-1.847-1.847V5.541A1.851,1.851,0,0,1,5.541,3.694H49.872a1.851,1.851,0,0,1,1.847,1.847v66.5a1.851,1.851,0,0,1-1.847,1.847ZM35.091,80.3a20.474,20.474,0,0,0-3.127-2.718h6.273A20.247,20.247,0,0,0,35.091,80.3m-14.773,30.53A16.624,16.624,0,1,1,36.942,94.2a16.645,16.645,0,0,1-16.624,16.624m29.554,0a16.438,16.438,0,0,1-12.459-5.686,20.171,20.171,0,0,0,0-21.877,16.438,16.438,0,0,1,12.459-5.686,16.624,16.624,0,1,1,0,33.248m29.554,0a16.438,16.438,0,0,1-12.459-5.686,20.171,20.171,0,0,0,0-21.877,16.438,16.438,0,0,1,12.459-5.686,16.624,16.624,0,0,1,0,33.248m31.4-14.777H99.65c.055-.61.094-1.223.094-1.847s-.039-1.237-.094-1.847h7.482V79.426h-3.694v9.236H98.958A20.341,20.341,0,0,0,79.426,73.884,20.091,20.091,0,0,0,64.645,80.3,20.127,20.127,0,0,0,62.8,78.543V3.694h48.025Z" transform="translate(0 0)"/>
        <path id="Path_1284546" data-name="Path 1284546" d="M308.318,168.636A20.318,20.318,0,1,0,288,148.318a20.342,20.342,0,0,0,20.318,20.318m0-36.942a16.624,16.624,0,1,1-16.624,16.624,16.645,16.645,0,0,1,16.624-16.624" transform="translate(-221.504 -98.446)"/>
        <path id="Path_1284547" data-name="Path 1284547" d="M197.541,359.388a1.851,1.851,0,0,1,1.847,1.847h3.694a5.534,5.534,0,0,0-3.694-5.2V352h-3.694v4.034a5.528,5.528,0,0,0,1.847,10.743,1.847,1.847,0,1,1-1.847,1.847H192a5.534,5.534,0,0,0,3.694,5.2v4.034h3.694v-4.034a5.528,5.528,0,0,0-1.847-10.743,1.847,1.847,0,1,1,0-3.694" transform="translate(-147.669 -270.727)"/>
        <path id="Path_1284548" data-name="Path 1284548" d="M69.541,359.388a1.851,1.851,0,0,1,1.847,1.847h3.694a5.534,5.534,0,0,0-3.694-5.2V352H67.694v4.034a5.528,5.528,0,0,0,1.847,10.743,1.847,1.847,0,1,1-1.847,1.847H64a5.534,5.534,0,0,0,3.694,5.2v4.034h3.694v-4.034a5.528,5.528,0,0,0-1.847-10.743,1.847,1.847,0,1,1,0-3.694" transform="translate(-49.223 -270.727)"/>
        <path id="Path_1284549" data-name="Path 1284549" d="M325.541,359.388a1.851,1.851,0,0,1,1.847,1.847h3.694a5.534,5.534,0,0,0-3.694-5.2V352h-3.694v4.034a5.528,5.528,0,0,0,1.847,10.743,1.847,1.847,0,1,1-1.847,1.847H320a5.534,5.534,0,0,0,3.694,5.2v4.034h3.694v-4.034a5.528,5.528,0,0,0-1.847-10.743,1.847,1.847,0,0,1,0-3.694" transform="translate(-246.116 -270.727)"/>
        <path id="Path_1284550" data-name="Path 1284550" d="M329.236,203.083a5.549,5.549,0,0,0,5.541-5.541,1.847,1.847,0,1,1,1.847,1.847v3.694a5.534,5.534,0,0,0,5.2-3.694h4.034v-3.694h-4.034a5.528,5.528,0,0,0-10.743,1.847,1.847,1.847,0,1,1-1.847-1.847V192a5.534,5.534,0,0,0-5.2,3.694H320v3.694h4.034a5.534,5.534,0,0,0,5.2,3.694" transform="translate(-246.116 -147.669)"/>
        <path id="Path_1284551" data-name="Path 1284551" d="M417.236,44.93h3.694V32H408v3.694h9.236Z" transform="translate(-313.797 -24.612)"/>
        <path id="Path_1284552" data-name="Path 1284552" d="M291.694,35.694h9.236V32H288V44.93h3.694Z" transform="translate(-221.504 -24.612)"/>
      </g>
    </g>
  </g>
</svg>
