<svg xmlns="http://www.w3.org/2000/svg" xmlns:xlink="http://www.w3.org/1999/xlink" width="115" height="115" viewBox="0 0 115 115">
  <defs>
    <clipPath id="clip-path">
      <rect id="Rectangle_412991" data-name="Rectangle 412991" width="112.045" height="111.968" fill="none"/>
    </clipPath>
  </defs>
  <g id="Group_1207464" data-name="Group 1207464" transform="translate(-816.051 -6074)">
    <rect id="Rectangle_412988" data-name="Rectangle 412988" width="115" height="115" transform="translate(816.051 6074)" fill="none"/>
    <g id="Group_1207463" data-name="Group 1207463" transform="translate(817.051 6076)">
      <g id="Group_1207462" data-name="Group 1207462" transform="translate(0 0)" clip-path="url(#clip-path)">
        <path id="Path_1282829" data-name="Path 1282829" d="M11.817.03a8.237,8.237,0,1,0,8.237,8.237V8.248A8.217,8.217,0,0,0,11.837.03h-.019" transform="translate(3.326 0.029)" fill="#bac7e5"/>
        <path id="Path_1282830" data-name="Path 1282830" d="M54.228,39.18A8.218,8.218,0,1,1,46.01,47.4a8.217,8.217,0,0,1,8.218-8.218" transform="translate(42.749 36.404)" fill="#bac7e5"/>
        <path id="Path_1282831" data-name="Path 1282831" d="M54.237,16.475A8.237,8.237,0,1,0,46,8.237v.019a8.217,8.217,0,0,0,8.218,8.218h.019" transform="translate(42.739 0.001)" fill="#bac7e5"/>
        <path id="Path_1282832" data-name="Path 1282832" d="M11.817,39.15a8.237,8.237,0,1,0,8.237,8.237v-.019a8.217,8.217,0,0,0-8.218-8.218h-.019" transform="translate(3.326 36.376)" fill="#bac7e5"/>
        <path id="Path_1282833" data-name="Path 1282833" d="M15.105,8.43A15.048,15.048,0,0,0,.078,23.458a5.266,5.266,0,0,0,1.775,4.591c1.794,1.177,3.858.27,6.347-.772a18.086,18.086,0,0,1,6.906-1.929,18.008,18.008,0,0,1,6.906,1.929,12.445,12.445,0,0,0,4.437,1.331,3.36,3.36,0,0,0,1.929-.559,5.266,5.266,0,0,0,1.775-4.591A15.048,15.048,0,0,0,15.105,8.43" transform="translate(0.038 7.833)" fill="#4294ff"/>
        <path id="Path_1282834" data-name="Path 1282834" d="M57.535,47.57A15.048,15.048,0,0,0,42.488,62.6a5.266,5.266,0,0,0,1.775,4.591c1.794,1.2,3.858.289,6.366-.772a18.008,18.008,0,0,1,6.906-1.929,18.008,18.008,0,0,1,6.906,1.929,11.952,11.952,0,0,0,4.437,1.331,3.3,3.3,0,0,0,1.929-.559A5.206,5.206,0,0,0,72.563,62.6,15.047,15.047,0,0,0,57.535,47.57" transform="translate(39.442 44.199)" fill="#4294ff"/>
        <path id="Path_1282835" data-name="Path 1282835" d="M44.262,27.779c1.794,1.2,3.858.289,6.366-.752A18.008,18.008,0,0,1,57.535,25.1a18.008,18.008,0,0,1,6.906,1.929,12.224,12.224,0,0,0,4.437,1.312,3.3,3.3,0,0,0,1.929-.559,5.206,5.206,0,0,0,1.755-4.591,15.047,15.047,0,0,0-30.075,0,5.266,5.266,0,0,0,1.775,4.591" transform="translate(39.442 8.065)" fill="#4294ff"/>
        <path id="Path_1282836" data-name="Path 1282836" d="M15.107,47.55A15.048,15.048,0,0,0,.079,62.578a5.209,5.209,0,0,0,1.775,4.591c1.794,1.177,3.858.289,6.347-.772a18.008,18.008,0,0,1,6.906-1.929A18.008,18.008,0,0,1,22.013,66.4a12.356,12.356,0,0,0,4.437,1.331,3.4,3.4,0,0,0,1.929-.559,5.266,5.266,0,0,0,1.775-4.591A15.048,15.048,0,0,0,15.107,47.55" transform="translate(0.037 44.18)" fill="#4294ff"/>
        <path id="Path_1282837" data-name="Path 1282837" d="M18.7,10.018A19.851,19.851,0,0,1,38.55,29.869a1.929,1.929,0,0,0,3.858,0A19.851,19.851,0,0,1,62.259,10.018a1.929,1.929,0,0,0,0-3.858,23.728,23.728,0,0,0-21.78,14.333A23.728,23.728,0,0,0,18.7,6.16a1.929,1.929,0,0,0,0,3.858" transform="translate(15.581 5.724)" fill="#2945e9"/>
        <path id="Path_1282838" data-name="Path 1282838" d="M62.259,60.39A19.851,19.851,0,0,1,42.408,40.539a1.929,1.929,0,1,0-3.858,0A19.851,19.851,0,0,1,18.7,60.39a1.929,1.929,0,1,0,0,3.858,23.728,23.728,0,0,0,21.78-14.333,23.728,23.728,0,0,0,21.78,14.333,1.929,1.929,0,0,0,0-3.858" transform="translate(15.581 35.874)" fill="#2945e9"/>
        <path id="Path_1282839" data-name="Path 1282839" d="M37.523,29.959a1.93,1.93,0,0,0-1.929-1.929H1.989a1.929,1.929,0,0,0,0,3.858H35.594a1.93,1.93,0,0,0,1.929-1.929" transform="translate(0.056 26.044)" fill="#2945e9"/>
        <path id="Path_1282840" data-name="Path 1282840" d="M74.174,28.03H40.569a1.929,1.929,0,1,0,0,3.858H74.174a1.929,1.929,0,1,0,0-3.858" transform="translate(35.901 26.044)" fill="#2945e9"/>
        <path id="Path_1282841" data-name="Path 1282841" d="M39.819,17.45A22.339,22.339,0,1,1,17.48,39.789,22.34,22.34,0,0,1,39.819,17.45" transform="translate(16.241 16.214)" fill="#ffb125"/>
        <path id="Path_1282842" data-name="Path 1282842" d="M32.292,34.264a2.817,2.817,0,1,1,2.817-2.817,1.929,1.929,0,0,0,3.858,0,6.656,6.656,0,0,0-4.746-6.366V23.249a1.929,1.929,0,0,0-3.858,0v1.833a6.655,6.655,0,0,0,1.929,13.041,2.817,2.817,0,1,1-2.817,2.817,1.929,1.929,0,1,0-3.858,0,6.656,6.656,0,0,0,4.746,6.366v1.929a1.929,1.929,0,1,0,3.858,0V47.305a6.655,6.655,0,0,0-1.929-13.041" transform="translate(23.768 19.81)" fill="#e1e7fa"/>
        <path id="Path_1282843" data-name="Path 1282843" d="M1.852,35.881c1.794,1.177,3.858.27,6.347-.772A18.086,18.086,0,0,1,15.1,33.18a18.008,18.008,0,0,1,6.906,1.929,12.445,12.445,0,0,0,4.437,1.331,3.51,3.51,0,0,0,1.929-.559,5.285,5.285,0,0,0,1.775-4.591,15.067,15.067,0,0,0-13.5-14.951,8.238,8.238,0,1,0-3.222,0A15.048,15.048,0,0,0,.077,31.289a5.285,5.285,0,0,0,1.775,4.591M10.745,8.275a4.379,4.379,0,1,1,4.4,4.36H15.1a4.36,4.36,0,0,1-4.36-4.36M15.1,20.1A11.19,11.19,0,0,1,26.294,31.289a5.072,5.072,0,0,1-.116,1.254,17.4,17.4,0,0,1-2.643-.984,21.307,21.307,0,0,0-8.43-2.2,21.217,21.217,0,0,0-8.411,2.2,17.4,17.4,0,0,1-2.643.984,5.072,5.072,0,0,1-.116-1.254A11.19,11.19,0,0,1,15.1,20.1" transform="translate(0.039 0.021)"/>
        <path id="Path_1282844" data-name="Path 1282844" d="M59.133,55.479a8.238,8.238,0,1,0-3.222,0,15.067,15.067,0,0,0-13.5,14.951,5.266,5.266,0,0,0,1.775,4.591c1.794,1.177,3.858.289,6.366-.772a18.008,18.008,0,0,1,6.906-1.929,18.008,18.008,0,0,1,6.906,1.929A12.356,12.356,0,0,0,68.8,75.58a3.3,3.3,0,0,0,1.929-.559,5.209,5.209,0,0,0,1.91-4.591,15.047,15.047,0,0,0-13.5-14.951m-5.98-8.064a4.341,4.341,0,1,0,.077,0ZM68.779,71.7a17.024,17.024,0,0,1-2.662-1,21.217,21.217,0,0,0-8.411-2.2,21.307,21.307,0,0,0-8.43,2.2,17.48,17.48,0,0,1-2.643,1,5.425,5.425,0,0,1-.116-1.273,11.189,11.189,0,0,1,22.358,0,7.217,7.217,0,0,1-.1,1.273" transform="translate(39.368 36.387)"/>
        <path id="Path_1282845" data-name="Path 1282845" d="M44.331,35.861c1.794,1.177,3.858.289,6.366-.772A18.008,18.008,0,0,1,57.6,33.16a18.008,18.008,0,0,1,6.906,1.929,12.356,12.356,0,0,0,4.437,1.331,3.3,3.3,0,0,0,1.929-.559,5.206,5.206,0,0,0,1.755-4.591,15.067,15.067,0,0,0-13.5-14.951,8.238,8.238,0,1,0-3.222,0A15.086,15.086,0,0,0,42.4,31.269a5.265,5.265,0,0,0,1.929,4.591M53.224,8.255A4.379,4.379,0,1,1,57.6,12.634a4.378,4.378,0,0,1-4.379-4.379M57.6,20.1a11.191,11.191,0,0,1,11.17,11.17,7.388,7.388,0,0,1,0,1.273,16.835,16.835,0,0,1-2.662-1,21.217,21.217,0,0,0-8.411-2.2,21.307,21.307,0,0,0-8.43,2.2,17.482,17.482,0,0,1-2.643,1,5.425,5.425,0,0,1-.116-1.273A11.188,11.188,0,0,1,57.6,20.1" transform="translate(39.374 0.002)"/>
        <path id="Path_1282846" data-name="Path 1282846" d="M16.764,55.459a8.238,8.238,0,1,0-3.222,0A15.047,15.047,0,0,0,.038,70.409,5.231,5.231,0,0,0,1.813,75c1.794,1.177,3.858.27,6.347-.772A18.008,18.008,0,0,1,15.066,72.3a18.008,18.008,0,0,1,6.906,1.929,12.445,12.445,0,0,0,4.437,1.331A3.51,3.51,0,0,0,28.339,75a5.285,5.285,0,0,0,1.775-4.591,15.066,15.066,0,0,0-13.35-14.951m-5.98-8.064a4.379,4.379,0,1,1,4.379,4.379h-.019a4.36,4.36,0,0,1-4.36-4.36v-.019M26.217,71.663a17.4,17.4,0,0,1-2.643-.984,21.307,21.307,0,0,0-8.43-2.2,21.217,21.217,0,0,0-8.411,2.2A16.668,16.668,0,0,1,4.07,71.721a6.807,6.807,0,0,1,0-1.254,11.189,11.189,0,0,1,22.358-.93c.014.311.014.621,0,.93a5.035,5.035,0,0,1-.212,1.254Z" transform="translate(0 36.368)"/>
        <path id="Path_1282847" data-name="Path 1282847" d="M77.784,90.55A19.849,19.849,0,0,1,58.03,72.532,22.357,22.357,0,0,0,78.247,52.2H110.02a1.929,1.929,0,1,0,0-3.858H78.247A22.338,22.338,0,0,0,58.03,28.046,19.849,19.849,0,0,1,77.784,10.028a1.929,1.929,0,0,0,0-3.858A23.749,23.749,0,0,0,56,20.5,23.728,23.728,0,0,0,34.225,6.17a1.929,1.929,0,0,0,0,3.858A19.85,19.85,0,0,1,54.075,28.046,22.34,22.34,0,0,0,33.762,48.341H1.989a1.929,1.929,0,0,0,0,3.858H33.762A22.359,22.359,0,0,0,54.075,72.532,19.849,19.849,0,0,1,34.321,90.55a1.929,1.929,0,1,0,0,3.858A23.764,23.764,0,0,0,56,80.075a23.789,23.789,0,0,0,21.78,14.333,1.929,1.929,0,0,0,0-3.858M37.523,50.27A18.481,18.481,0,1,1,56,68.77a18.481,18.481,0,0,1-18.481-18.5" transform="translate(0.056 5.733)"/>
        <path id="Path_1282848" data-name="Path 1282848" d="M34.2,49.194V47.362A6.655,6.655,0,0,0,32.275,34.3a2.836,2.836,0,1,1,2.817-2.855v.039a1.929,1.929,0,0,0,3.858,0A6.655,6.655,0,0,0,34.2,25.138V23.209a1.929,1.929,0,1,0-3.858,0v1.929A6.655,6.655,0,0,0,32.275,38.16a2.817,2.817,0,1,1-2.817,2.817,1.929,1.929,0,1,0-3.858,0,6.674,6.674,0,0,0,4.746,6.385v1.833a1.929,1.929,0,1,0,3.858,0" transform="translate(23.785 19.772)"/>
      </g>
    </g>
  </g>
</svg>
