<svg xmlns="http://www.w3.org/2000/svg" xmlns:xlink="http://www.w3.org/1999/xlink" width="115" height="115" viewBox="0 0 115 115">
  <defs>
    <clipPath id="clip-path">
      <rect id="Rectangle_413011" data-name="Rectangle 413011" width="112.253" height="110.39" fill="none"/>
    </clipPath>
  </defs>
  <g id="Group_1207471" data-name="Group 1207471" transform="translate(-1112.051 -6084)">
    <rect id="Rectangle_412989" data-name="Rectangle 412989" width="115" height="115" transform="translate(1112.051 6084)" fill="none"/>
    <g id="Group_1207470" data-name="Group 1207470" transform="translate(1113.051 6086)">
      <rect id="Rectangle_412993" data-name="Rectangle 412993" width="23.923" height="11.041" transform="translate(12.881 31.261)" fill="#88d0ef"/>
      <path id="Path_1282867" data-name="Path 1282867" d="M211.041,367.9,200,391.824h22.082Z" transform="translate(-153.995 -283.274)" fill="#5f7abc"/>
      <g id="Group_1207469" data-name="Group 1207469">
        <g id="Group_1207468" data-name="Group 1207468" clip-path="url(#clip-path)">
          <path id="Path_1282868" data-name="Path 1282868" d="M65.874,346.257a1.84,1.84,0,0,1-.328-3.649l80.969-14.722a1.84,1.84,0,1,1,.807,3.591q-.073.017-.148.027L66.205,346.225a1.7,1.7,0,0,1-.331.031" transform="translate(-49.312 -252.429)" fill="#9a615b"/>
          <path id="Path_1282869" data-name="Path 1282869" d="M71.284,189.983H40v-18.4H56.562l3.68-3.68H71.284Z" transform="translate(-30.799 -129.279)" fill="#7fcccb"/>
          <rect id="Rectangle_412994" data-name="Rectangle 412994" width="29.443" height="9.201" transform="translate(80.969 58.864)" fill="#ffbf41"/>
          <rect id="Rectangle_412995" data-name="Rectangle 412995" width="29.443" height="3.68" transform="translate(80.969 64.385)" fill="#ec7422"/>
          <path id="Path_1282870" data-name="Path 1282870" d="M352.562,31.9A16.562,16.562,0,1,1,336,48.463,16.562,16.562,0,0,1,352.562,31.9" transform="translate(-258.711 -24.563)" fill="#ffbf41"/>
          <path id="Path_1282871" data-name="Path 1282871" d="M376,295.9a9.2,9.2,0,0,0,18.4,0Z" transform="translate(-289.51 -227.836)" fill="#f8c09c"/>
          <path id="Path_1282872" data-name="Path 1282872" d="M32,359.9a9.2,9.2,0,1,0,18.4,0Z" transform="translate(-24.639 -277.114)" fill="#f8c09c"/>
          <rect id="Rectangle_412996" data-name="Rectangle 412996" width="3.68" height="3.68" transform="translate(86.49 58.864)" fill="#ffd884"/>
          <rect id="Rectangle_412997" data-name="Rectangle 412997" width="3.68" height="3.68" transform="translate(93.851 58.864)" fill="#ffd884"/>
          <rect id="Rectangle_412998" data-name="Rectangle 412998" width="3.68" height="3.68" transform="translate(101.211 58.864)" fill="#ffd884"/>
          <rect id="Rectangle_412999" data-name="Rectangle 412999" width="29.443" height="9.201" transform="translate(75.449 49.663)" fill="#ffbf41"/>
          <rect id="Rectangle_413000" data-name="Rectangle 413000" width="29.443" height="3.68" transform="translate(75.449 55.183)" fill="#ec7422"/>
          <rect id="Rectangle_413001" data-name="Rectangle 413001" width="3.68" height="3.68" transform="translate(80.969 49.663)" fill="#ffd884"/>
          <rect id="Rectangle_413002" data-name="Rectangle 413002" width="3.68" height="3.68" transform="translate(88.33 49.663)" fill="#ffd884"/>
          <rect id="Rectangle_413003" data-name="Rectangle 413003" width="3.68" height="3.68" transform="translate(95.691 49.663)" fill="#ffd884"/>
          <rect id="Rectangle_413004" data-name="Rectangle 413004" width="29.443" height="9.201" transform="translate(79.129 40.462)" fill="#ffbf41"/>
          <rect id="Rectangle_413005" data-name="Rectangle 413005" width="29.443" height="3.68" transform="translate(79.129 45.982)" fill="#ec7422"/>
          <rect id="Rectangle_413006" data-name="Rectangle 413006" width="3.68" height="3.68" transform="translate(84.65 40.462)" fill="#ffd884"/>
          <rect id="Rectangle_413007" data-name="Rectangle 413007" width="3.68" height="3.68" transform="translate(92.01 40.462)" fill="#ffd884"/>
          <path id="Path_1282873" data-name="Path 1282873" d="M389.521,71.783a2.632,2.632,0,1,1-.241-5.257c.08,0,.161,0,.241,0a2.76,2.76,0,0,1,2.6,1.752,1.4,1.4,0,0,0,1.761.8,1.3,1.3,0,0,0,.858-1.625q-.008-.026-.017-.052a5.521,5.521,0,0,0-5.206-3.506,5.264,5.264,0,1,0,0,10.515,2.631,2.631,0,0,1,.241,5.257c-.08,0-.161,0-.241,0a2.761,2.761,0,0,1-2.6-1.752,1.393,1.393,0,0,0-1.759-.8,1.3,1.3,0,0,0-.861,1.62q.009.029.019.057a5.521,5.521,0,0,0,5.206,3.506A5.263,5.263,0,1,0,390,71.783q-.241-.011-.482,0" transform="translate(-295.67 -49.197)" fill="#ffd884"/>
          <path id="Path_1282874" data-name="Path 1282874" d="M121.842,32.387a1.84,1.84,0,0,1-1.3-3.141l12.881-12.881a1.84,1.84,0,1,1,2.647,2.557l-.045.045L123.143,31.848a1.84,1.84,0,0,1-1.3.539" transform="translate(-92.398 -12.168)" fill="#7d8f9f"/>
          <path id="Path_1282875" data-name="Path 1282875" d="M175.437,9.178a1.84,1.84,0,0,1-1.3-.539l-5.521-5.521a1.84,1.84,0,0,1,2.6-2.6l5.521,5.521a1.84,1.84,0,0,1-1.3,3.141" transform="translate(-129.432 0)" fill="#7d8f9f"/>
          <rect id="Rectangle_413008" data-name="Rectangle 413008" width="3.68" height="3.68" transform="translate(99.371 40.462)" fill="#ffd884"/>
          <rect id="Rectangle_413009" data-name="Rectangle 413009" width="33.124" height="11.041" transform="translate(1.84 60.704)" fill="#ee8eb4"/>
          <rect id="Rectangle_413010" data-name="Rectangle 413010" width="33.124" height="11.041" transform="translate(5.521 71.745)" fill="#2bb3ce"/>
          <path id="Path_1282876" data-name="Path 1282876" d="M81.2,39.9,94.082,52.782,87.55,59.315A9.109,9.109,0,1,1,74.668,46.434Z" transform="translate(-55.438 -30.723)" fill="#d1e3ee"/>
          <path id="Path_1282877" data-name="Path 1282877" d="M112.253,23.9a18.4,18.4,0,1,0-29.4,14.722H79.129a1.84,1.84,0,0,0-1.84,1.84v7.361h-1.84a1.84,1.84,0,0,0-1.84,1.84v9.2a1.84,1.84,0,0,0,1.84,1.84h3.68v7.361a1.84,1.84,0,0,0,1.84,1.84h3.846a11.041,11.041,0,0,0,4.313,7.019L26.057,88.392a10.955,10.955,0,0,0,1.38-3.765H38.644a1.84,1.84,0,0,0,1.84-1.84V71.745a1.84,1.84,0,0,0-1.84-1.84H36.8V62.544h3.68a1.84,1.84,0,0,0,1.84-1.84V38.621a1.84,1.84,0,0,0-1.84-1.84h-1.84V31.26a1.84,1.84,0,0,0-1.84-1.84H33.886l6.06-6.06a1.84,1.84,0,0,0,0-2.6l-5.14-5.14L43.245,7.18,44.7,8.639a1.84,1.84,0,0,0,2.6-2.6L41.786.516a1.84,1.84,0,0,0-2.6,2.6l1.459,1.459L32.2,13.017l-5.14-5.14a1.84,1.84,0,0,0-2.6,0L17.929,14.41a10.914,10.914,0,0,0-.423,15.011H12.881a1.84,1.84,0,0,0-1.84,1.84v9.2H9.2a1.84,1.84,0,0,0-1.84,1.84V58.864H1.84A1.84,1.84,0,0,0,0,60.7V71.745a1.84,1.84,0,0,0,1.84,1.84H3.68v9.2a1.84,1.84,0,0,0,1.84,1.84h.166A10.994,10.994,0,0,0,20.22,93.191L53.9,87.07l-9.562,20.708a1.84,1.84,0,0,0,1.671,2.611H68.088a1.84,1.84,0,0,0,1.671-2.611L59.713,86.01,97.86,79.075a1.788,1.788,0,0,0,.8-.385,11.061,11.061,0,0,0,7.907-8.785h3.846a1.84,1.84,0,0,0,1.84-1.84v-9.2a1.84,1.84,0,0,0-1.84-1.84h-3.68V51.5h1.84a1.84,1.84,0,0,0,1.84-1.84v-9.2a1.84,1.84,0,0,0-1.84-1.84h-3.728A18.365,18.365,0,0,0,112.253,23.9M20.531,17.012l5.232-5.232L36.042,22.059l-5.232,5.232A7.269,7.269,0,1,1,20.458,17.085l.074-.074M14.722,33.1H34.964v3.68H29.443a1.84,1.84,0,0,0-1.3.539L25,40.462H14.722Zm-3.68,11.041H25.763a1.84,1.84,0,0,0,1.3-.539l3.141-3.141h8.439v18.4h-27.6ZM5.521,69.9H3.68V62.544H33.124V69.9Zm13.7,19.731-2.764.512a7.361,7.361,0,0,1-7.019-5.521H23.689a7.376,7.376,0,0,1-4.472,5.009M7.361,73.585H36.8v7.361H7.361Zm57.852,33.124H48.881l8.165-17.69ZM77.289,57.023V51.5h3.68v1.84h3.68V51.5h3.68v1.84h3.68V51.5h3.68v1.84h3.68V51.5h3.68v5.521Zm18.4,18.4A7.37,7.37,0,0,1,88.564,69.9h14.254a7.37,7.37,0,0,1-7.127,5.521M108.572,60.7v5.521H82.809V60.7h3.68v1.84h3.68V60.7h3.68v1.84h3.68V60.7h3.68v1.84h3.68V60.7Zm-1.84-18.4v5.521H80.969V42.3h3.68v1.84h3.68V42.3h3.68v1.84h3.68V42.3h3.68v1.84h3.68V42.3Zm-12.881-3.68A14.722,14.722,0,1,1,108.572,23.9,14.722,14.722,0,0,1,93.851,38.621" transform="translate(0 0)"/>
          <path id="Path_1282878" data-name="Path 1282878" d="M389.521,71.783a2.632,2.632,0,1,1-.241-5.257c.08,0,.161,0,.241,0a2.76,2.76,0,0,1,2.6,1.752,1.4,1.4,0,0,0,1.761.8,1.3,1.3,0,0,0,.858-1.625q-.008-.026-.017-.052a5.521,5.521,0,0,0-5.206-3.506,5.264,5.264,0,1,0,0,10.515,2.631,2.631,0,0,1,.241,5.257c-.08,0-.161,0-.241,0a2.761,2.761,0,0,1-2.6-1.752,1.393,1.393,0,0,0-1.759-.8,1.3,1.3,0,0,0-.861,1.62q.009.029.019.057a5.521,5.521,0,0,0,5.206,3.506A5.263,5.263,0,1,0,390,71.783q-.241-.011-.482,0" transform="translate(-295.67 -49.197)"/>
        </g>
      </g>
    </g>
  </g>
</svg>
